<svg
  width="64"
  height="64"
  viewBox="0 0 48 48"
  xmlns="http://www.w3.org/2000/svg"
>
  <path
    fill="#3E75C3"
    d="M24 0C10.75 0 0 10.79 0 24.1c0 10.64 6.88 19.67 16.42 22.86 1.2.22 1.64-.52 1.64-1.16 0-.57-.02-2.08-.03-4.09-6.68 1.46-8.09-3.23-8.09-3.23-1.09-2.79-2.66-3.53-2.66-3.53-2.18-1.49.17-1.46.17-1.46 2.41.17 3.68 2.48 3.68 2.48 2.14 3.68 5.62 2.62 6.99 2 .22-1.56.84-2.62 1.52-3.23-5.33-.61-10.93-2.67-10.93-11.9 0-2.63.93-4.78 2.47-6.47-.25-.61-1.08-3.05.23-6.37 0 0 2-.64 6.58 2.48 1.92-.54 3.97-.81 6.03-.82 2.06.01 4.12.28 6.05.82 4.57-3.12 6.57-2.48 6.57-2.48 1.32 3.32.49 5.76.24 6.37 1.55 1.69 2.47 3.84 2.47 6.47 0 9.27-5.61 11.32-10.96 11.93.88.76 1.67 2.27 1.67 4.57 0 3.23-.03 5.82-.03 6.61 0 .64.43 1.42 1.66 1.18C41.13 43.76 48 34.74 48 24.1 48 10.79 37.25 0 24 0z"
  />
</svg>