<svg
  width="40"
  height="40"
  viewBox="0 0 35 29"
  xmlns="http://www.w3.org/2000/svg"
>
  <path
    d="M26.1 19.9H7.9C5.3 19.9 3.7 18.1 3.3 16.3C3 15.2 0.7 7.1 0 4.9C-0.1 4.6 0.1 4.3 0.4 4.3H30V6.3H2.5C3.3 8.9 5 14.8 5.2 15.9C5.4 16.8 6.3 17.9 7.9 17.9H26.1V19.9Z"
    fill="#FFA501"
  />
  <path
    d="M24.6 24.8L23 23.7C23.2 23.4 23.4 23.1 23.5 22.7C24 21.2 27.5 8.8 29 3.5C29.5 1.4 31.3 0 33.5 0H34.7C34.8 0 35 0.2 35 0.3V1.6C35 1.8 34.8 2 34.7 2H33.5C32.3 2 31.2 2.8 30.9 4C29.4 9.3 25.9 21.8 25.4 23.4C25.2 23.9 24.9 24.4 24.6 24.8Z"
    fill="#FFA501"
  />
  <path d="M20.5 25H8.4V27H20.5V25Z" fill="#FFA501" />
  <path
    d="M6 29C4.3 29 3 27.6 3 26C3 24.3 4.4 23 6 23C7.7 23 9 24.4 9 26C9 27.6 7.7 29 6 29Z"
    fill="#FFA501"
  />
  <path
    d="M22.6 29C20.9 29 19.6 27.6 19.6 26C19.6 24.3 21 23 22.6 23C24.3 23 25.6 24.4 25.6 26C25.6 27.6 24.3 29 22.6 29Z"
    fill="#FFA501"
  />
</svg>
