<svg xmlns="http://www.w3.org/2000/svg" width="26" height="29" fill="none" viewBox="0 0 26 29"><g fill="#ffa501" clip-path="url(#a)"><path d="M13 12.9c-3.6 0-6.5-2.9-6.5-6.5S9.4 0 13 0s6.5 2.9 6.5 6.5-2.9 6.4-6.5 6.4M13 2c-2.5 0-4.5 2-4.5 4.5s2 4.5 4.5 4.5 4.5-2 4.5-4.5S15.5 2 13 2M23.2 29H2.8c-.8 0-1.5-.3-2-.9S0 26.7.1 25.9l.5-5.2c.2-2.7 2.3-3.9 3.2-4.4l.2-.2c.7-.4 2.4-1 4.1-1.3.8-.1 1.5 0 2.1.4 1.7 1.2 3.9 1.2 5.5 0 .6-.4 1.3-.6 2.1-.4 1.8.3 3.4.9 4.1 1.3l.3.2c1 .6 3 1.7 3.2 4.4l.5 5.2c.1.8-.2 1.6-.7 2.2s-1.2.9-2 .9M8.7 16.7h-.2c-1.9.4-3.2.9-3.4 1-.1.2-.2.2-.4.3-.9.5-2.1 1.2-2.3 2.9L2 26.1c0 .2.1.5.2.7.2.1.4.2.6.2h20.4q.3 0 .6-.3c.2-.2.2-.4.2-.7l-.5-5.2c-.1-1.6-1.4-2.3-2.3-2.9-.1-.1-.2-.1-.3-.2-.3-.2-1.5-.7-3.4-1-.2 0-.4 0-.5.1-2.3 1.7-5.6 1.7-7.9 0-.1 0-.3-.1-.4-.1"/></g><defs><clipPath id="a"><path fill="#fff" d="M0 0h26v29H0z"/></clipPath></defs></svg>
