<svg xmlns="http://www.w3.org/2000/svg" viewBox="0 0 448 512" width="44" height="44">
  <path fill="#25D366" d="M448 80v352c0 26.5-21.5 48-48 48H48c-26.5 0-48-21.5-48-48V80c0-26.5 21.5-48 48-48h352c26.5 0 48 21.5 48 48z"/>
  <path fill="#FFF" d="M224 122.1c-67.9 0-123.1 55.2-123.1 123.1 0 22.6 6.1 44.6 17.7 64l-18.8 68.7 70.3-18.4c19.1 10.4 40.6 15.9 62.6 15.9 67.9 0 123.1-55.2 123.1-123.1 0-67.9-55.2-123.2-123.1-123.2zm60.3 173.4c-2.6 7.3-15.1 13.3-20.7 14.1-4.8.6-11.1 1.1-32.3-7.3-27-10.7-44.4-38.3-45.7-40.1-1.3-1.8-10.9-14.5-10.9-27.7s6.9-20.4 9.4-23c2.5-2.6 5.4-3.2 7.2-3.2 1.8 0 3.7 0 5.3.1 1.6.1 3.7-.6 5.8 4.5 2.1 5.1 7.3 17.7 7.9 19.1.6 1.3 1 2.9.1 4.7-1 1.8-1.5 2.9-2.9 4.7-1.4 1.8-2.9 4-4.2 5.3-1.4 1.4-3 3-1.3 6 1.7 3 7.6 12.5 16.2 20.2 11.1 9.9 20.5 13 23.5 14.5 3 1.5 4.7 1.3 6.5-.7 1.8-1.9 7.6-8.8 9.7-11.8 2-3 4-2.5 6.8-1.5 2.7 1 17.4 8.2 20.4 9.7 3 1.5 5 2.2 5.7 3.4.7 1.2.7 6.8-1.9 14.1z"/>
</svg>